<svg xmlns="http://www.w3.org/2000/svg" version="1.1" xmlns:xlink="http://www.w3.org/1999/xlink" xmlns:svgjs="http://svgjs.com/svgjs" width="1440" height="560" preserveAspectRatio="none" viewBox="0 0 1440 560"><g mask="url(&quot;#SvgjsMask1008&quot;)" fill="none"><rect width="1440" height="560" x="0" y="0" fill="rgba(51, 0, 51, 1)"></rect><path d="M141.38 -18.59L206.33 18.91L206.33 93.91L141.38 131.41L76.42 93.91L76.42 18.91zM206.33 93.91L271.29 131.41L271.29 206.41L206.33 243.91L141.38 206.41L141.38 131.41zM206.33 543.91L271.29 581.41L271.29 656.41L206.33 693.91L141.38 656.41L141.38 581.41zM401.19 -18.59L466.15 18.91L466.15 93.91L401.19 131.41L336.24 93.91L336.24 18.91zM596.05 318.91L661.01 356.41L661.01 431.41L596.05 468.91L531.1 431.41L531.1 356.41zM661.01 431.41L725.96 468.91L725.96 543.91L661.01 581.41L596.05 543.91L596.05 468.91zM920.82 431.41L985.78 468.91L985.78 543.91L920.82 581.41L855.87 543.91L855.87 468.91zM985.78 543.91L1050.73 581.41L1050.73 656.41L985.78 693.91L920.82 656.41L920.82 581.41zM1245.59 318.91L1310.54 356.41L1310.54 431.41L1245.59 468.91L1180.64 431.41L1180.64 356.41zM1310.55 -18.59L1375.5 18.91L1375.5 93.91L1310.55 131.41L1245.59 93.91L1245.59 18.91zM1310.55 206.41L1375.5 243.91L1375.5 318.91L1310.55 356.41L1245.59 318.91L1245.59 243.91zM1440.45 -18.59L1505.41 18.91L1505.41 93.91L1440.45 131.41L1375.5 93.91L1375.5 18.91z" stroke="rgba(68, 0, 68, 1)" stroke-width="2"></path><path d="M133.88 -18.59 a7.5 7.5 0 1 0 15 0 a7.5 7.5 0 1 0 -15 0zM198.83 18.91 a7.5 7.5 0 1 0 15 0 a7.5 7.5 0 1 0 -15 0zM198.83 93.91 a7.5 7.5 0 1 0 15 0 a7.5 7.5 0 1 0 -15 0zM133.88 131.41 a7.5 7.5 0 1 0 15 0 a7.5 7.5 0 1 0 -15 0zM68.92 93.91 a7.5 7.5 0 1 0 15 0 a7.5 7.5 0 1 0 -15 0zM68.92 18.91 a7.5 7.5 0 1 0 15 0 a7.5 7.5 0 1 0 -15 0zM263.79 131.41 a7.5 7.5 0 1 0 15 0 a7.5 7.5 0 1 0 -15 0zM263.79 206.41 a7.5 7.5 0 1 0 15 0 a7.5 7.5 0 1 0 -15 0zM198.83 243.91 a7.5 7.5 0 1 0 15 0 a7.5 7.5 0 1 0 -15 0zM133.88 206.41 a7.5 7.5 0 1 0 15 0 a7.5 7.5 0 1 0 -15 0zM198.83 543.91 a7.5 7.5 0 1 0 15 0 a7.5 7.5 0 1 0 -15 0zM263.79 581.41 a7.5 7.5 0 1 0 15 0 a7.5 7.5 0 1 0 -15 0zM263.79 656.41 a7.5 7.5 0 1 0 15 0 a7.5 7.5 0 1 0 -15 0zM198.83 693.91 a7.5 7.5 0 1 0 15 0 a7.5 7.5 0 1 0 -15 0zM133.88 656.41 a7.5 7.5 0 1 0 15 0 a7.5 7.5 0 1 0 -15 0zM133.88 581.41 a7.5 7.5 0 1 0 15 0 a7.5 7.5 0 1 0 -15 0zM393.69 -18.59 a7.5 7.5 0 1 0 15 0 a7.5 7.5 0 1 0 -15 0zM458.65 18.91 a7.5 7.5 0 1 0 15 0 a7.5 7.5 0 1 0 -15 0zM458.65 93.91 a7.5 7.5 0 1 0 15 0 a7.5 7.5 0 1 0 -15 0zM393.69 131.41 a7.5 7.5 0 1 0 15 0 a7.5 7.5 0 1 0 -15 0zM328.74 93.91 a7.5 7.5 0 1 0 15 0 a7.5 7.5 0 1 0 -15 0zM328.74 18.91 a7.5 7.5 0 1 0 15 0 a7.5 7.5 0 1 0 -15 0zM588.55 318.91 a7.5 7.5 0 1 0 15 0 a7.5 7.5 0 1 0 -15 0zM653.51 356.41 a7.5 7.5 0 1 0 15 0 a7.5 7.5 0 1 0 -15 0zM653.51 431.41 a7.5 7.5 0 1 0 15 0 a7.5 7.5 0 1 0 -15 0zM588.55 468.91 a7.5 7.5 0 1 0 15 0 a7.5 7.5 0 1 0 -15 0zM523.6 431.41 a7.5 7.5 0 1 0 15 0 a7.5 7.5 0 1 0 -15 0zM523.6 356.41 a7.5 7.5 0 1 0 15 0 a7.5 7.5 0 1 0 -15 0zM718.46 468.91 a7.5 7.5 0 1 0 15 0 a7.5 7.5 0 1 0 -15 0zM718.46 543.91 a7.5 7.5 0 1 0 15 0 a7.5 7.5 0 1 0 -15 0zM653.51 581.41 a7.5 7.5 0 1 0 15 0 a7.5 7.5 0 1 0 -15 0zM588.55 543.91 a7.5 7.5 0 1 0 15 0 a7.5 7.5 0 1 0 -15 0zM913.32 431.41 a7.5 7.5 0 1 0 15 0 a7.5 7.5 0 1 0 -15 0zM978.28 468.91 a7.5 7.5 0 1 0 15 0 a7.5 7.5 0 1 0 -15 0zM978.28 543.91 a7.5 7.5 0 1 0 15 0 a7.5 7.5 0 1 0 -15 0zM913.32 581.41 a7.5 7.5 0 1 0 15 0 a7.5 7.5 0 1 0 -15 0zM848.37 543.91 a7.5 7.5 0 1 0 15 0 a7.5 7.5 0 1 0 -15 0zM848.37 468.91 a7.5 7.5 0 1 0 15 0 a7.5 7.5 0 1 0 -15 0zM1043.23 581.41 a7.5 7.5 0 1 0 15 0 a7.5 7.5 0 1 0 -15 0zM1043.23 656.41 a7.5 7.5 0 1 0 15 0 a7.5 7.5 0 1 0 -15 0zM978.28 693.91 a7.5 7.5 0 1 0 15 0 a7.5 7.5 0 1 0 -15 0zM913.32 656.41 a7.5 7.5 0 1 0 15 0 a7.5 7.5 0 1 0 -15 0zM1238.09 318.91 a7.5 7.5 0 1 0 15 0 a7.5 7.5 0 1 0 -15 0zM1303.04 356.41 a7.5 7.5 0 1 0 15 0 a7.5 7.5 0 1 0 -15 0zM1303.04 431.41 a7.5 7.5 0 1 0 15 0 a7.5 7.5 0 1 0 -15 0zM1238.09 468.91 a7.5 7.5 0 1 0 15 0 a7.5 7.5 0 1 0 -15 0zM1173.14 431.41 a7.5 7.5 0 1 0 15 0 a7.5 7.5 0 1 0 -15 0zM1173.14 356.41 a7.5 7.5 0 1 0 15 0 a7.5 7.5 0 1 0 -15 0zM1303.05 -18.59 a7.5 7.5 0 1 0 15 0 a7.5 7.5 0 1 0 -15 0zM1368 18.91 a7.5 7.5 0 1 0 15 0 a7.5 7.5 0 1 0 -15 0zM1368 93.91 a7.5 7.5 0 1 0 15 0 a7.5 7.5 0 1 0 -15 0zM1303.05 131.41 a7.5 7.5 0 1 0 15 0 a7.5 7.5 0 1 0 -15 0zM1238.09 93.91 a7.5 7.5 0 1 0 15 0 a7.5 7.5 0 1 0 -15 0zM1238.09 18.91 a7.5 7.5 0 1 0 15 0 a7.5 7.5 0 1 0 -15 0zM1303.05 206.41 a7.5 7.5 0 1 0 15 0 a7.5 7.5 0 1 0 -15 0zM1368 243.91 a7.5 7.5 0 1 0 15 0 a7.5 7.5 0 1 0 -15 0zM1368 318.91 a7.5 7.5 0 1 0 15 0 a7.5 7.5 0 1 0 -15 0zM1303.05 356.41 a7.5 7.5 0 1 0 15 0 a7.5 7.5 0 1 0 -15 0zM1238.09 243.91 a7.5 7.5 0 1 0 15 0 a7.5 7.5 0 1 0 -15 0zM1432.95 -18.59 a7.5 7.5 0 1 0 15 0 a7.5 7.5 0 1 0 -15 0zM1497.91 18.91 a7.5 7.5 0 1 0 15 0 a7.5 7.5 0 1 0 -15 0zM1497.91 93.91 a7.5 7.5 0 1 0 15 0 a7.5 7.5 0 1 0 -15 0zM1432.95 131.41 a7.5 7.5 0 1 0 15 0 a7.5 7.5 0 1 0 -15 0z" fill="rgba(68, 0, 68, 1)"></path><path d="M15.16 -20.91L58.46 4.09L58.46 54.09L15.16 79.09L-28.14 54.09L-28.14 4.09zM58.46 54.09L101.77 79.09L101.77 129.09L58.46 154.09L15.16 129.09L15.16 79.09zM15.16 129.09L58.46 154.09L58.46 204.09L15.16 229.09L-28.14 204.09L-28.14 154.09zM58.46 204.09L101.77 229.09L101.77 279.09L58.46 304.09L15.16 279.09L15.16 229.09zM101.77 129.09L145.07 154.09L145.07 204.09L101.77 229.09L58.46 204.09L58.46 154.09zM145.07 504.09L188.37 529.09L188.37 579.09L145.07 604.09L101.77 579.09L101.77 529.09zM231.67 54.09L274.98 79.09L274.98 129.09L231.67 154.09L188.37 129.09L188.37 79.09zM188.37 129.09L231.67 154.09L231.67 204.09L188.37 229.09L145.07 204.09L145.07 154.09zM231.67 504.09L274.98 529.09L274.98 579.09L231.67 604.09L188.37 579.09L188.37 529.09zM318.28 54.09L361.58 79.09L361.58 129.09L318.28 154.09L274.98 129.09L274.98 79.09zM318.28 204.09L361.58 229.09L361.58 279.09L318.28 304.09L274.98 279.09L274.98 229.09zM274.98 279.09L318.28 304.09L318.28 354.09L274.98 379.09L231.67 354.09L231.67 304.09zM274.98 429.09L318.28 454.09L318.28 504.09L274.98 529.09L231.67 504.09L231.67 454.09zM361.58 129.09L404.88 154.09L404.88 204.09L361.58 229.09L318.28 204.09L318.28 154.09zM404.88 354.09L448.19 379.09L448.19 429.09L404.88 454.09L361.58 429.09L361.58 379.09zM491.49 204.09L534.79 229.09L534.79 279.09L491.49 304.09L448.19 279.09L448.19 229.09zM448.19 429.09L491.49 454.09L491.49 504.09L448.19 529.09L404.88 504.09L404.88 454.09zM578.09 54.09L621.39 79.09L621.39 129.09L578.09 154.09L534.79 129.09L534.79 79.09zM578.09 204.09L621.39 229.09L621.39 279.09L578.09 304.09L534.79 279.09L534.79 229.09zM578.09 354.09L621.39 379.09L621.39 429.09L578.09 454.09L534.79 429.09L534.79 379.09zM534.79 429.09L578.09 454.09L578.09 504.09L534.79 529.09L491.49 504.09L491.49 454.09zM578.09 504.09L621.39 529.09L621.39 579.09L578.09 604.09L534.79 579.09L534.79 529.09zM621.39 129.09L664.7 154.09L664.7 204.09L621.39 229.09L578.09 204.09L578.09 154.09zM664.7 204.09L708 229.09L708 279.09L664.7 304.09L621.39 279.09L621.39 229.09zM664.7 354.09L708 379.09L708 429.09L664.7 454.09L621.39 429.09L621.39 379.09zM751.3 354.09L794.61 379.09L794.61 429.09L751.3 454.09L708 429.09L708 379.09zM837.91 54.09L881.21 79.09L881.21 129.09L837.91 154.09L794.61 129.09L794.61 79.09zM794.61 279.09L837.91 304.09L837.91 354.09L794.61 379.09L751.3 354.09L751.3 304.09zM837.91 354.09L881.21 379.09L881.21 429.09L837.91 454.09L794.61 429.09L794.61 379.09zM794.61 429.09L837.91 454.09L837.91 504.09L794.61 529.09L751.3 504.09L751.3 454.09zM924.51 54.09L967.82 79.09L967.82 129.09L924.51 154.09L881.21 129.09L881.21 79.09zM881.21 129.09L924.51 154.09L924.51 204.09L881.21 229.09L837.91 204.09L837.91 154.09zM967.82 279.09L1011.12 304.09L1011.12 354.09L967.82 379.09L924.51 354.09L924.51 304.09zM1011.12 354.09L1054.42 379.09L1054.42 429.09L1011.12 454.09L967.82 429.09L967.82 379.09zM1011.12 504.09L1054.42 529.09L1054.42 579.09L1011.12 604.09L967.82 579.09L967.82 529.09zM1054.42 -20.91L1097.72 4.09L1097.72 54.09L1054.42 79.09L1011.12 54.09L1011.12 4.09zM1054.42 129.09L1097.72 154.09L1097.72 204.09L1054.42 229.09L1011.12 204.09L1011.12 154.09zM1097.72 354.09L1141.03 379.09L1141.03 429.09L1097.72 454.09L1054.42 429.09L1054.42 379.09zM1097.72 504.09L1141.03 529.09L1141.03 579.09L1097.72 604.09L1054.42 579.09L1054.42 529.09zM1184.33 54.09L1227.63 79.09L1227.63 129.09L1184.33 154.09L1141.03 129.09L1141.03 79.09zM1141.03 129.09L1184.33 154.09L1184.33 204.09L1141.03 229.09L1097.72 204.09L1097.72 154.09zM1141.03 279.09L1184.33 304.09L1184.33 354.09L1141.03 379.09L1097.72 354.09L1097.72 304.09zM1184.33 354.09L1227.63 379.09L1227.63 429.09L1184.33 454.09L1141.03 429.09L1141.03 379.09zM1184.33 504.09L1227.63 529.09L1227.63 579.09L1184.33 604.09L1141.03 579.09L1141.03 529.09zM1227.63 -20.91L1270.93 4.09L1270.93 54.09L1227.63 79.09L1184.33 54.09L1184.33 4.09zM1270.93 354.09L1314.24 379.09L1314.24 429.09L1270.93 454.09L1227.63 429.09L1227.63 379.09zM1314.24 -20.91L1357.54 4.09L1357.54 54.09L1314.24 79.09L1270.93 54.09L1270.93 4.09zM1314.24 429.09L1357.54 454.09L1357.54 504.09L1314.24 529.09L1270.93 504.09L1270.93 454.09zM1400.84 -20.91L1444.14 4.09L1444.14 54.09L1400.84 79.09L1357.54 54.09L1357.54 4.09zM1444.14 354.09L1487.45 379.09L1487.45 429.09L1444.14 454.09L1400.84 429.09L1400.84 379.09zM1400.84 429.09L1444.14 454.09L1444.14 504.09L1400.84 529.09L1357.54 504.09L1357.54 454.09zM1444.14 504.09L1487.45 529.09L1487.45 579.09L1444.14 604.09L1400.84 579.09L1400.84 529.09z" stroke="rgba(85, 0, 85, 1)" stroke-width="2"></path></g><defs><mask id="SvgjsMask1008"><rect width="1440" height="560" fill="#ffffff"></rect></mask></defs></svg>